<svg xmlns="http://www.w3.org/2000/svg" viewBox="0 0 64 64">
  <!-- Circle background -->
  <circle cx="32" cy="32" r="30" fill="#8a68cf" />
  <circle cx="32" cy="32" r="25" fill="white" />
  
  <!-- Clock hands -->
  <path
    d="M32 32L32 14"
    stroke="#8a68cf"
    stroke-width="3"
    stroke-linecap="round"
  />
  <path
    d="M32 32L45 40"
    stroke="#8a68cf"
    stroke-width="3"
    stroke-linecap="round"
  />
  
  <!-- Speech bubble overlay -->
  <path
    d="M50 30C50 38.2843 41.9411 45 32 45C27.0588 45 22.5294 43.4559 19.224 40.9094L12 45L14.5 37.8C13.0148 35.4418 12.1176 32.8127 12 30C12 21.7157 20.0589 15 30 15C39.9411 15 50 21.7157 50 30Z"
    fill="#8a68cf40"
    stroke="#8a68cf"
    stroke-width="2"
  />
  
  <!-- Horizontal lines representing text in the speech bubble -->
  <line
    x1="20"
    y1="25"
    x2="40"
    y2="25"
    stroke="#8a68cf"
    stroke-width="2"
    stroke-linecap="round"
  />
  <line
    x1="20"
    y1="31"
    x2="36"
    y2="31"
    stroke="#8a68cf"
    stroke-width="2"
    stroke-linecap="round"
  />
  <line
    x1="20"
    y1="37"
    x2="32"
    y2="37"
    stroke="#8a68cf"
    stroke-width="2"
    stroke-linecap="round"
  />
</svg>